<svg id="Layer_8" data-name="Layer 8" xmlns="http://www.w3.org/2000/svg" xmlns:xlink="http://www.w3.org/1999/xlink" viewBox="0 0 125.99 84.13"><defs><style>.cls-1{fill:url(#linear-gradient);}.cls-2{fill:#3a7f5e;}.cls-3,.cls-4,.cls-5{fill:none;}.cls-3{stroke-linecap:round;stroke-linejoin:round;stroke-dasharray:10;stroke:url(#linear-gradient-2);}.cls-3,.cls-4,.cls-5,.cls-6{stroke-width:3px;}.cls-4,.cls-5{stroke:#010101;}.cls-4,.cls-5,.cls-6{stroke-miterlimit:2;}.cls-4,.cls-6{fill-rule:evenodd;}.cls-6{fill:#fff;stroke:url(#linear-gradient-3);}</style><linearGradient id="linear-gradient" x1="75.87" y1="694.4" x2="119.34" y2="619.1" gradientUnits="userSpaceOnUse"><stop offset="0" stop-color="#3a7f5e"/><stop offset="1"/></linearGradient><linearGradient id="linear-gradient-2" x1="136.47" y1="688.4" x2="173.13" y2="624.91" gradientUnits="userSpaceOnUse"><stop offset="0" stop-color="#3a7f5e"/><stop offset="0.16" stop-color="#34644d"/><stop offset="0.38" stop-color="#2c4639"/><stop offset="0.6" stop-color="#27302b"/><stop offset="0.81" stop-color="#242323"/><stop offset="1" stop-color="#231f20"/></linearGradient><linearGradient id="linear-gradient-3" x1="187.58" y1="653.16" x2="187.58" y2="687.58" gradientUnits="userSpaceOnUse"><stop offset="0"/><stop offset="1" stop-color="#3a7f5e"/></linearGradient></defs><path class="cls-1" d="M102.18,642.35v-7.47a17.47,17.47,0,0,0,5.41-2h0a18.25,18.25,0,0,0,7.34-23.18,1.29,1.29,0,0,0-1.25-.78h0l-.16,0a17.89,17.89,0,0,0-6,2.11,18.09,18.09,0,0,0-8.9,16.35,17.15,17.15,0,0,0-13.56-6.68h0a17.13,17.13,0,0,0-6,1.09,1.34,1.34,0,0,0-.85,1.38,17.31,17.31,0,0,0,17.12,15.43h0a16.82,16.82,0,0,0,4.18-.54v15.5H81.79a2.09,2.09,0,0,0-2.07,2.07V662a2.09,2.09,0,0,0,2.07,2.07h.9L85.92,693h29.75l3.23-28.95h.85a2.09,2.09,0,0,0,2.07-2.07v-6.37a2.09,2.09,0,0,0-2.07-2.07H102.18v-3.49M89.63,631l8.59,4.56a11.6,11.6,0,0,1-2.86.45,14.51,14.51,0,0,1-14.15-11.93,14.07,14.07,0,0,1,3.85-.71h0a14.38,14.38,0,0,1,13.38,9.33l-7.58-4a1.37,1.37,0,0,0-.63-.16,1.32,1.32,0,0,0-.6,2.49Zm19.2-17.65a15.46,15.46,0,0,1,4-1.41,15.45,15.45,0,0,1-6.53,18.68,12.34,12.34,0,0,1-2.74,1.06l6.42-8.43a1.32,1.32,0,1,0-2.1-1.59l-6.15,8.08A15.29,15.29,0,0,1,108.83,613.33Zm4.49,77.08h-25l-2.93-26.32h30.92Z" transform="translate(-78.24 -608.91)"/><path class="cls-2" d="M89.63,631l8.59,4.56a11.6,11.6,0,0,1-2.86.45,14.51,14.51,0,0,1-14.15-11.93,14.07,14.07,0,0,1,3.85-.71h0a14.38,14.38,0,0,1,13.38,9.33l-7.58-4a1.37,1.37,0,0,0-.63-.16,1.32,1.32,0,0,0-.6,2.49Z" transform="translate(-78.24 -608.91)"/><path class="cls-2" d="M108.83,613.33a15.46,15.46,0,0,1,4-1.41,15.45,15.45,0,0,1-6.53,18.68,12.34,12.34,0,0,1-2.74,1.06l6.42-8.43a1.32,1.32,0,1,0-2.1-1.59l-6.15,8.08A15.29,15.29,0,0,1,108.83,613.33Z" transform="translate(-78.24 -608.91)"/><path class="cls-3" d="M142,689.86v-63h23.31a27.47,27.47,0,0,1,12.51,2.52,16.89,16.89,0,0,1,7.38,6.93,21.1,21.1,0,0,1,.09,19.49,17.2,17.2,0,0,1-7.29,7q-5,2.65-12.69,2.65H153.52v24.39Zm11.52-33.75h11.07q6,0,8.68-2.65a9.8,9.8,0,0,0,2.66-7.25,9.9,9.9,0,0,0-2.66-7.33q-2.66-2.65-8.68-2.66H153.52Z" transform="translate(-78.24 -608.91)"/><path class="cls-2" d="M146.88,693V630h23.31a27.47,27.47,0,0,1,12.51,2.52,16.89,16.89,0,0,1,7.38,6.93,21.1,21.1,0,0,1,.09,19.49,17.2,17.2,0,0,1-7.29,7q-4.95,2.65-12.69,2.65H158.4V693Zm11.52-33.75h11.07q6,0,8.68-2.65a9.8,9.8,0,0,0,2.66-7.25,9.9,9.9,0,0,0-2.66-7.33q-2.66-2.65-8.68-2.66H158.4Z" transform="translate(-78.24 -608.91)"/><path class="cls-4" d="M195.2,656.55a4.14,4.14,0,0,1,5.17,2.79,29.87,29.87,0,0,1,1.22,10.49l-.37,5.94a5.41,5.41,0,0,0,.22,1.54l.92,3.09-17.91,5.32-.92-3.09A1.09,1.09,0,0,0,183,682l-7.41-3.37a5.34,5.34,0,0,1-2.9-3.3h0a5.32,5.32,0,0,1,3.56-6.61l.88-.26-1.58-5.28a4.81,4.81,0,0,1,2.32-5.69,4.53,4.53,0,0,1,3.77-.18,4.5,4.5,0,0,1,2.46-1.76,4.69,4.69,0,0,1,3.82.51,4.63,4.63,0,0,1,7,.55.66.66,0,0,0,.26,0Z" transform="translate(-78.24 -608.91)"/><path class="cls-5" d="M185.26,664l2.79,9" transform="translate(-78.24 -608.91)"/><path class="cls-5" d="M192.45,663.33l1.69,8.11" transform="translate(-78.24 -608.91)"/><path class="cls-6" d="M195.2,656.55a4.14,4.14,0,0,1,5.17,2.79,29.87,29.87,0,0,1,1.22,10.49l-.37,5.94a5.41,5.41,0,0,0,.22,1.54l.92,3.09-17.91,5.32-.92-3.09A1.09,1.09,0,0,0,183,682l-7.41-3.37a5.34,5.34,0,0,1-2.9-3.3h0a5.32,5.32,0,0,1,3.56-6.61l.88-.26-1.58-5.28a4.81,4.81,0,0,1,2.32-5.69,4.53,4.53,0,0,1,3.77-.18,4.5,4.5,0,0,1,2.46-1.76,4.69,4.69,0,0,1,3.82.51,4.63,4.63,0,0,1,7,.55.66.66,0,0,0,.26,0ZM185.26,664l2.79,9m4.4-9.69,1.69,8.11" transform="translate(-78.24 -608.91)"/></svg>