<?xml version="1.0" encoding="UTF-8"?><svg xmlns="http://www.w3.org/2000/svg" viewBox="0 0 283.31 283.31"><defs><style>.cls-1{stroke:#000;}.cls-1,.cls-2{fill:#2b211b;}.cls-1,.cls-3{stroke-linecap:round;stroke-linejoin:round;stroke-width:2px;}.cls-4,.cls-3{fill:#edb78e;}.cls-5{fill:#fff;}.cls-6{fill:#d6844c;}.cls-7{fill:#3a7f5e;}.cls-3{stroke:#edb78e;}</style></defs><g id="background"><circle class="cls-7" cx="141.66" cy="141.66" r="141.66"/></g><g id="Layer_6"><g><path class="cls-2" d="m175.2,203.26c-8.35-1.64-18.28-1.23-31.32-.68-17.38.73-19.94,2.69-33.94,2.51-19.43-.25-24.56-4.16-28.58-.77-5.09,4.29-5.54,17.81,13.76,57.58l2.64,14.47s0,0,0,0c4.93,1.6,11.86,3.56,20.3,4.97,0,0,0,0,0,0,1.31.22,2.64.42,3.98.61.05,0,.11.01.16.02,1.14.16,2.29.3,3.45.43.34.04.68.08,1.02.12.46.05.92.09,1.37.13,4.48.43,9.01.65,13.6.65,29.7,0,57.26-9.15,80.04-24.77.86-1.55,1.51-3.15,1.87-4.83,3.98-18.41-23.07-45.47-48.36-50.45Z"/><path d="m214.8,134.54c.64-21.24.97-31.86-3.17-43.58-1.86-5.26-8.04-16.56-18.89-27.42,0,0,0,0,0,0,0,0-10.41-8.83-34.3-15.11-2.76-.73-5.57-.96-5.58-.96-1.52-.06-3.06-.12-4.58-.02-.22.01-1.99.19-3.75.67-6.07,1.63-11.03,6.53-11.03,6.53,0,0-5.15-1.25-8.79-1.79,0,0,0,0,0,0,0,0-4.92-.9-10.09-.35-4.09.43-26.48,11.18-38.46,39.35-6.85,16.09-7.53,31.35-6.72,42.27l7.01,133.31c6.08,3.16,12.43,5.89,18.99,8.16.61-1.42,1.19-2.85,1.79-4.28.83-2,1.46-4.08,2.22-6.25.81,4.2.6,8.49,2.32,12.54.65.19,1.3.38,1.95.56.14-.09.27-.19.38-.32,1.29-1.42-.09-4.11-.83-7.14-1.48-6.07.12-11.42.57-12.93.77-2.57.98-1.5,3.97-8.38,1.17-2.69,1.97-5.03,2.9-7.74.34-1,.68-2.19,1.02-3.81.79-3.72.61-7.64.81-11.47.02-.42-.32-.86-.49-1.29-.21-.06-.43-.13-.64-.19-.45.64-1.14,1.73-1.7,3.19-.75,1.95-.88,3.56-.94,4.16-.48,4.99-2.63,11.51-4.42,15.53-.61,1.38-1.59,3.38-3.08,5.71-.3-.46-.49-.63-.52-.83-.45-2.75-.99-5.5-1.26-8.27-.17-1.8-.13-3.69.18-5.47.51-2.85.45-5.86,1.2-8.85.33-1.3,1.56-6.05,4.69-10.08,4.89-6.31,12.26-8.11,14.61-8.65,10.76-2.47,20.31,1.73,22.21-1.6.7-1.22,1.53-5.98,2.52-6.34.09-.03.08-.31,2.26,0,.27.04.23.01,1.49,0,3.02-.02,10.03.12,10.03.12,0,0,.03.24.6,4.65,3.38.7,6,.52,7.74.25,2.86-.45,3.85-1.25,6.78-1.6,2.7-.32,4.75.02,6.97.41,3,.52,7.8,1.35,12.74,4.4,6.52,4.01,9.69,9.66,12.26,14.23,2.59,4.6,3.83,8.42,4.23,9.61,1.69,5.08,4.54,12.69,9.71,24.41,1.71-1.13,3.4-2.3,5.06-3.5-.81-9.43-1.75-17.07-2.57-22.91-2.02-14.37-3.3-21.55-3.3-21.55-.9-5.7-1.92-11.38-2.85-17.08-.39-2.42-.73-4.86-1.01-7.3-.05-.45-.11-.98-.17-1.62,0,0-.33-3.19-.55-6.6-.69-10.55.49-44.76.49-44.76Z"/><path class="cls-6" d="m144.51,203.65c.19.1.48.25.84.41,1.89.81,3.63.85,4.98.81,4.37-.15,8.34-1.33,8.34-1.33l1.07-10.34c-2.79.57-5.78,1.08-8.96,1.5-2.95.39-5.76.66-8.42.84.71,2.71,1.43,5.41,2.14,8.12Z"/><path class="cls-4" d="m195.75,142.35c-.25,6.4-.02,7.14-.41,12.69-.22,3.16-.83,6.86-1.61,11.41-.81,4.76-3.04,8.59-6.8,11.88-3.37,2.95-7.13,5.2-10.75,7.7-1.89,1.3-4.12,2.12-6.24,3.07-2.59,1.17-5.18,2.36-7.84,3.36-1.64.62-3.38,1.03-5.11,1.31-3.68.61-7.38,1.17-11.09,1.57-2.02.22-4.1.24-6.12.08-3.88-.31-7.75-.72-11.6-1.29-2.13-.32-4.96-.88-8.32-1.86-6-1.74-15.22-4.42-21.58-12.39-1.39-1.75-2.17-3.14-3.18-4.97-4.26-7.7-5.45-15-6.44-21.47-.26-1.67-.6-4.16-.84-7.25l-.35-18.92c.2-2.25.4-4.49.6-6.74,21.31-11.12,36.74-24.07,36.74-24.07,2.44-2.07,7.03-6.14,8.02-12.42.35-2.21.17-4.08-.03-5.32l.61-.05c.4,5.1,1.54,12.38,4.96,20.49.78,1.85,1.17,2.77,1.75,3.81,8.08,14.3,30.12,16.43,41.01,17.49,1.16.11,2.33.22,3.49.34,2.57.27,5.14.54,7.71.82.97.11,1.41.4,1.62.54,2.53,1.77,1.8,20.19,1.8,20.19Z"/><path class="cls-5" d="m94.03,145.58h0s17.27,1.52,17.28,1.52h0s10.89-7.66,9.8-11.18c-1.34-4.32-21.29-4.39-24.83,2.71-.87,1.75-2.25,6.96-2.25,6.96Z"/><path class="cls-5" d="m158.5,142.09c.09,1.4.8,2.4,1.03,2.69,4.46,5.82,20.84,1.03,20.83,1.04h0s1.31-12.09-3.01-14.98c-5.01-3.35-19.28,4.58-18.85,11.25Z"/><path d="m186.19,266.14c-3.03-17.53-5.28-23.72-3.79-27.39.16-.39,1.02-2.38.49-4.57-.1-.41-.39-1.38-1.2-2.25-.2-.21-1.56-1.57-2.51-1.22-.72.27-.99,1.47-1.08,4.26-.15,5.05.33,7.44.33,7.44,1.33,6.69,2.19,13.47,3.49,20.17,1.54,7.95,2.18,11.63,3.28,13.91,1.26-.41,2.51-.83,3.76-1.27-1.84-3.79-2.76-9.08-2.76-9.08Z"/><path class="cls-6" d="m130.4,164.12c.8.29,1.09,1.01,1.56,1.66,3.55,4.91,11.15,5.91,12.17,6.03.54.06,1.13.14,1.95.13,4.74-.03,9.37-2.57,11.07-5.38.12-.2.64-.72,1.06-1.63,1.15-2.51,3.12-3.46,5.73-2.65.95.29,1.65.92.96,1.91-.59.85-1.37,1.68-2.26,2.21-1.6.96-3.37,1.63-5,2.54-4.78,2.66-4.88,3.82-8.63,4.89-4.83,1.38-10.46-.56-13.26-2.42,0,0-4.09-2.29-7.14-3.95-.16-.09-.33-.17-.51-.21-1.81-.47-2.05-.66-2.12-.87-.22-.69,2.52-2.98,4.44-2.27Z"/><path d="m127.47,138.59c-1.71-4.26-4.94-7.31-9.01-9.1-2.41-1.06-5.3-1.26-8-1.4-3.05-.17-6.14.02-9.18.31-4.54.43-9.03.66-13.81-1.13,1.24,2.77,2.64,3.78,3.75,4.16.21.07,1.55.59,3.27,1.31,1.81.76,1.8,1.44.43,2.82-1.01,1.02-1.85,2.27-2.53,3.54-.77,1.45-1.53,2.8-3.15,3.45-.68.27-1.22.23-1.5-.18l.07,3.82c1.92-.15,3.31-.47,4.64-.31,1.67.2,2.31-.95,3.18-1.87,2.27-2.42,4.52-4.87,6.81-7.28.97-1.02,1.95-1.48,3.07-.07.31.39,1.11.67,1.6.58,1.46-.27,2.68-.02,3.3,1.36.56,1.25-.28,2.78-2.07,3.82,1.03,1.62,2.05,3.23,2.96,4.66,3.75,0,7.47.34,11.09-.12,2.38-.3,5.06-1.36,5.58-4.32.23-1.29,0-2.83-.51-4.06Z"/><path d="m100.78,153.18c-1.03,0-1.68-.29-1.91-.78-.24-.52.07-1.11.25-1.45,1.1-2.06,4.37-3.32,5.53-3.73.06.52.07,1.15-.09,1.82-.64,2.71-3.32,3.94-3.78,4.14Z"/><path d="m185.48,153.18c1.03,0,1.68-.29,1.91-.78.24-.52-.07-1.11-.25-1.45-1.1-2.06-4.37-3.32-5.53-3.73-.06.52-.07,1.15.09,1.82.64,2.71,3.32,3.94,3.78,4.14Z"/><path d="m198.73,141.82l-.07,3.82c-1.08-.11-2.69-.24-4.64-.31-1.51-.05-3.71-.08-7.83.12-7.33.36-8.6.89-10.15-.23-1.72-1.25-2.37-3.29-2.65-4.72,1.96-.65,3.1-1.98,2.8-3.32-.32-1.48-1.47-1.98-2.95-2.01-.5-.01-1.22-.45-1.45-.9-.1-.21-.27-.36-.45-.5-.67.14-1.14.28-1.3.33-6.94,2.12-10.35,8.82-11.54,7.99-.72-.5.16-3.2.51-4.06,1.71-4.26,4.94-7.31,9.01-9.1,2.41-1.06,5.3-1.26,8-1.4,3.05-.17,6.14.02,9.18.31,4.54.43,9.03.66,13.81-1.13-1.24,2.77-2.64,3.78-3.75,4.16-.21.07-1.55.59-3.27,1.31-1.81.76-1.8,1.44-.43,2.82,1.01,1.02,1.85,2.27,2.53,3.54.77,1.45,1.53,2.8,3.15,3.45.68.27,1.22.23,1.5-.18Z"/><path d="m113.92,118.68c1.25-.29,10.24-2.3,13.5,1.99.19.25,1.73,2.33,1,3.79-.59,1.19-2.96,1.94-4.47,1.25-1.84-.85-3.7-1.75-5.35-2.91-1.64-1.15-3.04-2.65-4.68-4.12Z"/><path d="m166.52,118.68c-1.25-.29-10.24-2.3-13.5,1.99-.19.25-1.73,2.33-1,3.79.59,1.19,2.96,1.94,4.47,1.25,1.84-.85,3.7-1.75,5.35-2.91,1.64-1.15,3.04-2.65,4.68-4.12Z"/><path class="cls-6" d="m206.23,154.8c-.67.7-1.45,1.28-2.18,1.92-.18-.16-.36-.33-.54-.49,0-4.82-.09-9.64.03-14.45.07-2.76.46-5.51.74-8.26.36-3.54,2.62-4.54,5.54-2.47,3.43,2.42,4.68,6.02,3.54,10.49-.53,2.09-1.02,4.25-1.97,6.17-.91,1.84-2.4,3.4-3.63,5.08-.5.68-.95,1.41-1.54,2.02Z"/></g></g><g id="Layer_5"><g id="hand"><path class="cls-3" d="m83.12,229.97c-.18-.94-.45-2.18-.85-3.62-.38-1.37-1.03-3.67-2.27-6.31-1.77-3.79-3.33-5.18-4.27-9.67-1.56-7.42-.01-10.56-2.48-13.28-.06-.07-.11-.12-.11-.12-1.23-1.26-3.28-1.02-3.38-1-1.71.23-2.76,1.54-3.1,1.98-2.31,2.99-.47,6.52-1.72,7.23-1.27.71-4.48-1.78-9.91-7.61-6.64-7.14-9.96-7.82-11.61-6.99-.61.31-.92.85-1.08,1.15-1.23,2.25.17,5.83,3.35,9.21-1.49-1.86-3.55-2.67-5.16-2.1-.69.25-1.44.76-1.75,1.54-1.14,2.84,3.78,7.69,3.78,7.69,0,0-2.31-1.78-3.97-1.28-1.04.31-1.53,1.43-1.59,1.59-.66,1.59.19,3.81,2.2,5.44,3.58,2.87,5.5,4.4,5.5,4.4-1.69-1.63-3.81-2.13-5.22-1.33-1.02.57-1.73,1.86-1.67,3.09.14,2.66,3.76,2.66,9.12,7.47,2.39,2.14,3.81,3.7,7.01,5.8.7.46,1.54.88,2.69,1.31,4.6,1.71,5.99.77,7.49,2.21,1.19,1.14.48,1.98,2.41,7.81.75,2.27.99,2.54,1.24,2.74"/><g><path class="cls-4" d="m58.29,220.55c-.08-3.65.87-5.98,1.75-7.44,1.01-1.67,2.07-2.43,2.91-4.49.82-1.99.88-3.85.82-5.08"/><path class="cls-6" d="m58.19,220.55c-.4-3.1.16-6.46,2-9.08.94-1.32,1.46-2.47,2.03-3.75.58-1.27.98-2.64,1.45-4.17.02-.06.08-.09.13-.07.76,1.45.71,3.28.31,4.9-.84,3.07-4.02,4.67-4.82,7.77-.52,1.38-.76,2.88-.9,4.39,0,.11-.19.12-.2,0h0Z"/></g><g><path class="cls-4" d="m41.18,197.12c3.38,3.27,6.76,6.54,10.14,9.81"/><path class="cls-6" d="m41.22,197.08c3.41,3.21,7.64,5.9,10.13,9.88-2.09-1.15-3.77-2.9-5.37-4.65-1.63-1.7-3.24-3.42-4.83-5.16-.04-.04.02-.11.07-.07h0Z"/></g><g><path class="cls-4" d="m38.44,205.3c2.77,2.57,5.54,5.15,8.3,7.72"/><path class="cls-6" d="m38.47,205.26c2.79,2.5,6.43,4.52,8.28,7.79-1.77-.8-3.14-2.19-4.44-3.6-1.32-1.35-2.63-2.72-3.91-4.12-.04-.04.02-.11.07-.07h0Z"/></g><g><path class="cls-4" d="m38.86,215.49c1.47.88,3.06,1.93,4.71,3.18,1.45,1.1,2.73,2.2,3.86,3.25"/><path class="cls-6" d="m38.88,215.45c2.39,1.22,4.79,2.57,6.81,4.36.65.63,1.27,1.3,1.77,2.07.03.04-.02.1-.07.07-1.72-.73-3.02-1.89-4.32-3.16-1.37-1.14-2.78-2.23-4.24-3.27-.05-.03,0-.11.05-.09h0Z"/></g><path class="cls-1" d="m87.81,227.95c2.55.34,4.34,2.54,6.06,5.47,9.85,16.79,16.77,28.58,10.72,38.67-3.37,5.62-9.79,9.09-15.84,9.62-11.2.98-18.84-8.36-21.48-11.59-2.86-3.49-6.46-7.89-5.85-13.34.43-3.85,2.45-5.07,10.25-13.82,9.85-11.05,12.24-15.54,16.15-15.01Z"/></g></g><g id="Layer_4"><g id="Layer_3"><path class="cls-5" d="m36.46,138.12c1.37-.73,2.6-1.52,3.93-2.06,3.14-1.28,6.34-2.41,9.5-3.65.84-.33,1.86-.65,2.33-1.31.52-.72.55-1.81.66-2.76.02-.17-.63-.61-.94-.59-1.94.12-4.08-.12-5.78.61-3.76,1.63-7.36,3.69-10.89,5.78-.69.41-1.03,1.76-1.07,2.7-.01.36,1.29.76,2.25,1.29Z"/><path class="cls-5" d="m57.74,115.92c-1.5-2.38-2.89-4.65-4.36-6.87-1.97-2.97-4.02-5.88-6.02-8.83-.82-1.21-1.75-1.02-2.85-.39-1.26.73-1.15,1.63-.47,2.63,1.42,2.07,3.02,4.03,4.28,6.2,1.47,2.55,2.64,5.27,3.95,7.91.48.96,1.15,1.76,2.34,1.21.98-.45,1.87-1.1,3.12-1.86Z"/><path class="cls-5" d="m45.64,119.34c-.59.31-1.6.63-2.25,1.3-.29.3-.06,1.75.3,1.92,1.79.85,3.66,1.62,5.59,2.02.58.12,1.44-1.06,2.14-1.68.86-.78.72-2.07-.31-2.35-1.67-.45-3.38-.75-5.47-1.2Z"/></g></g></svg>